<?xml version="1.0" encoding="UTF-8" standalone="no" ?>
<!DOCTYPE svg PUBLIC "-//W3C//DTD SVG 1.1//EN" "http://www.w3.org/Graphics/SVG/1.1/DTD/svg11.dtd">
<svg xmlns="http://www.w3.org/2000/svg" xmlns:xlink="http://www.w3.org/1999/xlink" version="1.1" width="1080" height="1080" viewBox="0 0 1080 1080" xml:space="preserve">
<desc>Created with Fabric.js 5.2.4</desc>
<defs>
</defs>
<g transform="matrix(1 0 0 1 540 540)" id="7206d087-0f73-4d79-84ba-a1b30cfbb85c"  >
<rect style="stroke: none; stroke-width: 1; stroke-dasharray: none; stroke-linecap: butt; stroke-dashoffset: 0; stroke-linejoin: miter; stroke-miterlimit: 4; fill: rgb(255,255,255); fill-rule: nonzero; opacity: 1; visibility: hidden;" vector-effect="non-scaling-stroke"  x="-540" y="-540" rx="0" ry="0" width="1080" height="1080" />
</g>
<g transform="matrix(1 0 0 1 540 540)" id="f00ee3d2-4b98-47aa-a971-38c4a92a5125"  >
</g>
<g transform="matrix(1.79 0 0 2.02 2291.95 517.64)"  >
<g style="" vector-effect="non-scaling-stroke"   >
		<g transform="matrix(1 0 0 1 -939.3 -0.01)"  >
<path style="stroke: none; stroke-width: 1; stroke-dasharray: none; stroke-linecap: butt; stroke-dashoffset: 0; stroke-linejoin: miter; stroke-miterlimit: 4; fill: rgb(50,41,150); fill-rule: nonzero; opacity: 1;" vector-effect="non-scaling-stroke"  transform=" translate(-207.94, -242.51)" d="M 415.876 251.749 C 408.022 236.781 392.597 229.457 385.866 227.667 C 383.94 198.917 356.783 183.208 330.107 183.208 C 308.063 183.208 292.997 186.851 287.871 190.247 C 292.466 191.877 296.393 197.842 297.504 201.362 C 287.427 205.067 267.495 221.739 258.788 229.89 C 255.528 222.48 229.272 186.913 216.552 170.055 C 204.696 154.347 183.825 129.054 174.872 118.372 C 162.423 104.293 146.591 75.7037 140.231 63.1687 C 129.234 41.495 123.867 12.9672 123.374 0 C 77.2844 76.3212 97.2539 131.524 113.926 155.236 C 110.468 151.531 101.959 143.01 95.5867 137.823 C 89.2142 132.636 84.1632 126.708 82.4342 124.485 C 72.5051 110.851 66.6884 92.3758 65.0212 84.8424 C 44.6442 168.203 74.9009 209.636 92.6227 220.998 C 67.4294 213.773 42.977 185.616 34.2704 170.982 C 35.3819 246.377 71.69 274.719 89.1031 281.573 C 56.6481 278.313 34.8879 261.134 28.1573 252.86 C 38.9757 311.398 83.9162 331.342 105.034 333.998 C 86.8801 335.48 71.69 333.564 66.8736 332.701 C 56.9445 330.923 45.8174 326.032 41.495 323.809 C 67.5776 367.823 94.6605 374.566 110.777 374.566 C 130.487 374.715 154.062 367.095 163.201 362.896 C 158.57 374.011 120.965 394.573 102.811 403.465 C 60.39 424.953 19.8213 433.289 0 434.771 C 21.3032 478.489 82.1873 452.864 109.851 435.327 C 97.8467 448.368 69.7758 463.793 57.4261 469.597 C 82.4713 492.864 114.79 473.735 127.819 461.261 C 124.263 466.152 113 477.131 107.813 482.009 C 135.229 492.827 155.791 471.944 162.646 460.15 C 161.756 463.114 154.865 474.229 151.531 479.415 C 176.131 483.268 187.53 460.767 190.247 449.776 C 190.247 456.63 186.913 466.325 185.431 469.597 C 204.993 463.966 209.513 448.85 210.068 440.514 C 210.068 436.513 209.142 417.914 207.66 408.096 C 234.039 408.096 258.664 397.228 267.495 391.794 C 291.206 376.085 305.779 348.57 310.101 336.776 C 312.917 329.959 321.154 310.101 324.921 301.024 C 327.885 292.429 332.948 284.105 335.109 281.017 C 347.409 263.382 361.97 255.392 367.712 253.601 C 385.496 246.636 407.231 249.464 415.876 251.749 Z" stroke-linecap="round" />
</g>
		<g transform="matrix(1 0 0 1 -973.01 202.87)"  >
<path style="stroke: none; stroke-width: 1; stroke-dasharray: none; stroke-linecap: butt; stroke-dashoffset: 0; stroke-linejoin: miter; stroke-miterlimit: 4; fill: rgb(56,206,255); fill-rule: nonzero; opacity: 1;" vector-effect="non-scaling-stroke"  transform=" translate(-174.22, -445.39)" d="M 188.58 454.963 C 194.063 439.996 196.422 419.273 196.916 410.875 L 191.914 419.396 C 191.544 420.693 188.58 435.883 178.762 453.667 C 170.907 467.894 159.743 472.809 155.236 473.488 L 151.531 479.416 C 173.316 483.121 185.369 464.658 188.58 454.963 Z" stroke-linecap="round" />
</g>
		<g transform="matrix(1 0 0 1 -999.41 205.25)"  >
<path style="stroke: none; stroke-width: 1; stroke-dasharray: none; stroke-linecap: butt; stroke-dashoffset: 0; stroke-linejoin: miter; stroke-miterlimit: 4; fill: rgb(56,206,255); fill-rule: nonzero; opacity: 1;" vector-effect="non-scaling-stroke"  transform=" translate(-147.83, -447.77)" d="M 179.503 418.284 L 187.839 410.504 C 185.616 416.37 179.33 433.752 162.46 460.335 C 144.121 489.233 118.742 487.01 107.813 482.009 L 118.187 472.005 C 128.264 477.933 141.095 469.906 145.788 464.966 C 161.201 449.109 175.181 426.744 179.503 418.284 Z" stroke-linecap="round" />
</g>
		<g transform="matrix(1 0 0 1 -1030.35 200.33)"  >
<path style="stroke: none; stroke-width: 1; stroke-dasharray: none; stroke-linecap: butt; stroke-dashoffset: 0; stroke-linejoin: miter; stroke-miterlimit: 4; fill: rgb(56,206,255); fill-rule: nonzero; opacity: 1;" vector-effect="non-scaling-stroke"  transform=" translate(-116.89, -442.85)" d="M 97.0686 461.817 C 86.9912 465.225 80.767 460.705 78.9145 458.112 L 57.426 469.597 C 67.4293 480.156 80.767 480.774 86.1391 480.527 C 103.182 480.675 121.296 467.56 127.264 461.817 C 144.589 445.145 166.165 418.284 176.354 405.132 L 162.275 411.986 C 149.864 423.286 125.596 443.589 115.964 451.443 C 106.331 459.298 98.5505 461.199 97.0686 461.817 Z" stroke-linecap="round" />
</g>
		<g transform="matrix(1 0 0 1 -1063.78 187.89)"  >
<path style="stroke: none; stroke-width: 1; stroke-dasharray: none; stroke-linecap: butt; stroke-dashoffset: 0; stroke-linejoin: miter; stroke-miterlimit: 4; fill: rgb(56,206,255); fill-rule: nonzero; opacity: 1;" vector-effect="non-scaling-stroke"  transform=" translate(-83.45, -430.41)" d="M 109.851 435.327 L 166.906 401.798 L 148.382 404.577 C 129.301 412.233 85.2434 431.509 59.0933 440.514 C 31.1212 450.147 9.01528 441.008 0 434.772 C 21.3403 478.489 82.3108 453.234 109.851 435.327 Z" stroke-linecap="round" />
</g>
		<g transform="matrix(1 0 0 1 -946.88 -67.55)"  >
<path style="stroke: none; stroke-width: 1; stroke-dasharray: none; stroke-linecap: butt; stroke-dashoffset: 0; stroke-linejoin: miter; stroke-miterlimit: 4; fill: rgb(56,206,255); fill-rule: nonzero; opacity: 1;" vector-effect="non-scaling-stroke"  transform=" translate(-200.36, -174.96)" d="M 281.203 286.76 C 288.02 321.438 276.386 343.322 269.717 349.929 C 275.349 315.103 256.785 271.77 248.414 257.862 C 236.373 237.855 210.439 207.29 184.134 184.505 C 162.576 165.831 142.454 135.723 135.044 121.521 C 110.295 74.9874 116.952 21.118 123.373 0 C 126.634 33.196 135.785 54.4622 139.305 60.9458 C 146.714 77.8031 163.942 103.614 171.723 114.482 C 174.686 118.038 195.063 143.01 204.881 155.05 C 207.29 157.273 242.672 202.659 258.788 229.704 C 271.734 251.431 279.288 276.695 281.203 286.76 Z" stroke-linecap="round" />
</g>
		<g transform="matrix(1 0 0 1 -819.57 -15.2)"  >
<path style="stroke: none; stroke-width: 1; stroke-dasharray: none; stroke-linecap: butt; stroke-dashoffset: 0; stroke-linejoin: miter; stroke-miterlimit: 4; fill: rgb(56,206,255); fill-rule: nonzero; opacity: 1;" vector-effect="non-scaling-stroke"  transform=" translate(-327.67, -227.31)" d="M 329.552 200.065 C 364.378 200.065 377.407 221.861 380.865 233.223 C 369.38 226.369 354.375 227.296 348.262 229.332 C 340.666 231.863 330.663 240.263 322.512 245.449 C 304.358 257 286.204 254.835 278.795 253.414 C 275.275 249.34 274.163 242.671 274.534 238.04 C 277.312 212.106 311.583 199.879 329.552 200.065 Z" stroke-linecap="round" />
</g>
		<g transform="matrix(1 0 0 1 -818.25 -15.2)"  >
<path style="stroke: none; stroke-width: 1; stroke-dasharray: none; stroke-linecap: butt; stroke-dashoffset: 0; stroke-linejoin: miter; stroke-miterlimit: 4; fill: rgb(255,255,255); fill-rule: nonzero; opacity: 1;" vector-effect="non-scaling-stroke"  transform=" translate(-328.99, -227.32)" d="M 321.035 202.844 C 358.825 198.213 375.74 220.443 380.68 233.039 C 363.933 212.884 343.08 208.772 332.891 208.772 C 314.181 208.772 303.005 215.935 298.435 220.072 C 284.653 231.039 285.654 246.007 287.876 252.12 C 279.726 254.194 277.622 245.08 277.313 240.079 C 277.016 233.558 279.91 227.508 281.578 225.259 C 292.318 209.884 311.958 203.957 321.035 202.844 Z" stroke-linecap="round" />
</g>
		<g transform="matrix(1 0 0 1 -981.1 -25.32)"  >
<path style="stroke: none; stroke-width: 1; stroke-dasharray: none; stroke-linecap: butt; stroke-dashoffset: 0; stroke-linejoin: miter; stroke-miterlimit: 4; fill: rgb(56,206,255); fill-rule: nonzero; opacity: 1;" vector-effect="non-scaling-stroke"  transform=" translate(-166.14, -217.2)" d="M 222.85 259.159 C 261.752 297.319 268.791 329.552 268.791 349.559 C 260.641 311.917 228.778 282.935 207.66 266.569 C 185.431 249.341 153.383 229.952 141.342 222.851 C 99.477 200.251 83.7928 176.169 77.618 164.313 C 61.3164 131.858 62.3661 97.81 65.0213 84.8428 C 70.2082 105.59 74.2836 109.851 77.8032 117.075 C 80.619 122.855 88.4298 131.535 92.2524 134.859 C 100.218 141.786 108.369 148.752 113.556 155.051 C 120.595 165.425 145.974 197.102 171.167 215.626 C 191.322 230.446 214.02 250.823 222.85 259.159 Z" stroke-linecap="round" />
</g>
		<g transform="matrix(1 0 0 1 -996.17 17.75)"  >
<path style="stroke: none; stroke-width: 1; stroke-dasharray: none; stroke-linecap: butt; stroke-dashoffset: 0; stroke-linejoin: miter; stroke-miterlimit: 4; fill: rgb(56,206,255); fill-rule: nonzero; opacity: 1;" vector-effect="non-scaling-stroke"  transform=" translate(-151.07, -260.27)" d="M 92.6227 220.998 C 100.921 228.355 127.449 247.858 154.68 259.714 C 157.974 261.196 170.996 266.506 177.095 268.976 C 203.585 279.165 214.885 287.686 221.924 291.947 C 255.268 315.473 265.086 338.628 267.865 349.558 C 252.664 319.065 218.298 302.86 196.175 294.54 C 174.501 286.389 144.492 279.672 130.042 275.46 C 89.6589 263.689 72.5312 243.893 64.6506 235.076 C 43.5933 210.809 34.8234 182.678 34.2704 170.981 C 57.426 206.178 82.4342 218.219 92.6227 220.998 Z" stroke-linecap="round" />
</g>
		<g transform="matrix(1 0 0 1 -999.78 58.41)"  >
<path style="stroke: none; stroke-width: 1; stroke-dasharray: none; stroke-linecap: butt; stroke-dashoffset: 0; stroke-linejoin: miter; stroke-miterlimit: 4; fill: rgb(56,206,255); fill-rule: nonzero; opacity: 1;" vector-effect="non-scaling-stroke"  transform=" translate(-147.46, -300.93)" d="M 199.324 308.618 C 227.852 316.399 256.334 332.583 266.754 349.002 C 246.187 327.578 213.403 321.774 201.177 321.075 C 188.95 320.375 170.575 320.826 157.459 321.075 C 120.801 321.768 89.0582 312.796 80.2114 307.507 C 55.0179 294.54 31.6551 262.448 28.1574 252.859 C 48.1639 273.977 75.2097 280.09 88.9178 281.387 C 97.7333 285.354 122.262 295.281 147.826 299.356 C 167.647 302.516 190.291 306.155 199.324 308.618 Z" stroke-linecap="round" />
</g>
		<g transform="matrix(1 0 0 1 -993.94 98.23)"  >
<path style="stroke: none; stroke-width: 1; stroke-dasharray: none; stroke-linecap: butt; stroke-dashoffset: 0; stroke-linejoin: miter; stroke-miterlimit: 4; fill: rgb(56,206,255); fill-rule: nonzero; opacity: 1;" vector-effect="non-scaling-stroke"  transform=" translate(-153.29, -340.75)" d="M 195.064 331.403 C 222.192 331.088 250.081 336.591 265.086 348.446 C 242.347 336.433 210.844 339.688 199.88 342.148 C 188.917 344.607 174.897 347.52 163.387 351.039 C 131.218 360.877 99.907 357.555 90.7703 355.115 C 65.0212 348.238 46.9941 331.388 41.495 323.809 C 64.4653 336.035 91.3261 334.923 104.664 333.997 C 113.44 335.278 132.822 336.22 155.236 334.553 C 173.601 333.187 185.246 331.517 195.064 331.403 Z" stroke-linecap="round" />
</g>
		<g transform="matrix(1 0 0 1 -949.44 194.29)"  >
<path style="stroke: none; stroke-width: 1; stroke-dasharray: none; stroke-linecap: butt; stroke-dashoffset: 0; stroke-linejoin: miter; stroke-miterlimit: 4; fill: rgb(56,206,255); fill-rule: nonzero; opacity: 1;" vector-effect="non-scaling-stroke"  transform=" translate(-197.8, -436.81)" d="M 210.068 439.402 C 210.624 424.212 208.586 410.134 206.734 404.021 C 206.05 405.935 205.056 409.43 205.067 411.06 C 205.215 426.028 203.708 435.204 203.214 437.55 C 200.547 453.555 190.185 465.522 185.431 469.597 C 205.437 464.04 209.763 447.738 210.068 439.402 Z" stroke-linecap="round" />
</g>
		<g transform="matrix(1 0 0 1 -945.64 -69.03)"  >
<path style="stroke: none; stroke-width: 1; stroke-dasharray: none; stroke-linecap: butt; stroke-dashoffset: 0; stroke-linejoin: miter; stroke-miterlimit: 4; fill: rgb(255,255,255); fill-rule: nonzero; opacity: 1;" vector-effect="non-scaling-stroke"  transform=" translate(-201.59, -173.48)" d="M 134.303 55.3884 C 125.115 36.1229 123.188 10.3737 123.374 0 C 120.706 26.379 128.684 52.548 133.006 62.2425 C 139.231 77.8031 151.407 97.8714 156.718 105.96 C 163.387 116.149 177.465 133.932 182.837 140.416 C 187.135 145.603 198.213 160.361 203.214 167.091 C 209.439 175.539 232.73 209.513 243.598 225.444 C 252.638 238.189 261.443 262.369 264.716 272.867 C 270.644 291.984 270.459 310.224 269.532 316.955 C 271.57 327.514 271.385 339.74 270.273 346.965 C 274.41 341.84 282.277 323.846 279.906 295.096 C 277.535 266.346 260.517 234.706 252.304 222.48 C 239.399 203.894 210.254 162.979 196.916 148.011 C 183.578 133.043 171.105 116.705 166.536 110.406 C 146.826 82.249 136.835 61.9955 134.303 55.3884 Z" stroke-linecap="round" />
</g>
		<g transform="matrix(1 0 0 1 740.32 -12.55)"  >
<path style="stroke: none; stroke-width: 1; stroke-dasharray: none; stroke-linecap: butt; stroke-dashoffset: 0; stroke-linejoin: miter; stroke-miterlimit: 4; fill: rgb(255,255,255); fill-rule: nonzero; opacity: 1;" vector-effect="non-scaling-stroke"  transform=" translate(-1887.55, -229.97)" d="M 1887.53 278.53 C 1879.36 278.53 1872.33 276.596 1866.42 272.728 C 1860.51 268.83 1855.96 263.241 1852.76 255.962 C 1849.56 248.652 1847.98 239.865 1848.01 229.601 C 1848.04 219.337 1849.64 210.626 1852.8 203.469 C 1856 196.281 1860.54 190.814 1866.42 187.068 C 1872.33 183.291 1879.36 181.403 1887.53 181.403 C 1895.69 181.403 1902.72 183.291 1908.63 187.068 C 1914.57 190.814 1919.14 196.281 1922.34 203.469 C 1925.54 210.657 1927.12 219.368 1927.09 229.601 C 1927.09 239.896 1925.49 248.698 1922.29 256.007 C 1919.09 263.317 1914.54 268.906 1908.63 272.774 C 1902.75 276.612 1895.72 278.53 1887.53 278.53 Z M 1887.53 260.028 C 1892.4 260.028 1896.34 257.545 1899.36 252.581 C 1902.37 247.586 1903.87 239.926 1903.83 229.601 C 1903.83 222.84 1903.15 217.266 1901.78 212.88 C 1900.41 208.464 1898.5 205.175 1896.07 203.012 C 1893.63 200.85 1890.78 199.768 1887.53 199.768 C 1882.68 199.768 1878.77 202.22 1875.78 207.124 C 1872.8 211.997 1871.29 219.489 1871.26 229.601 C 1871.23 236.454 1871.89 242.134 1873.23 246.642 C 1874.6 251.149 1876.51 254.515 1878.98 256.738 C 1881.45 258.931 1884.3 260.028 1887.53 260.028 Z" stroke-linecap="round" />
</g>
		<g transform="matrix(1 0 0 1 734.9 105.53)"  >
<path style="stroke: none; stroke-width: 1; stroke-dasharray: none; stroke-linecap: butt; stroke-dashoffset: 0; stroke-linejoin: miter; stroke-miterlimit: 4; fill: rgb(255,255,255); fill-rule: nonzero; opacity: 1;" vector-effect="non-scaling-stroke"  transform=" translate(-1882.13, -348.04)" d="M 1908.24 292.573 L 1908.24 403.517 L 1881.48 403.517 L 1881.48 317.6 L 1880.83 317.6 L 1856.02 332.768 L 1856.02 309.583 L 1883.38 292.573 L 1908.24 292.573 Z" stroke-linecap="round" />
</g>
		<g transform="matrix(1 0 0 1 11.06 51.63)"  >
<path style="stroke: none; stroke-width: 1; stroke-dasharray: none; stroke-linecap: butt; stroke-dashoffset: 0; stroke-linejoin: miter; stroke-miterlimit: 4; fill: rgb(255,255,255); fill-rule: nonzero; opacity: 1;" vector-effect="non-scaling-stroke"  transform=" translate(-1158.29, -294.14)" d="M 553.988 185.415 C 564.194 185.415 574.504 185.519 584.919 185.728 C 595.333 185.728 605.644 185.832 615.85 186.04 C 626.056 186.249 635.742 186.769 644.907 187.602 L 643.345 211.348 L 563.048 211.348 C 555.966 211.348 550.759 212.91 547.426 216.034 C 544.302 219.159 542.74 224.158 542.74 231.031 L 542.74 401.31 L 511.496 401.31 L 511.496 225.095 C 511.496 212.597 515.349 202.912 523.056 196.038 C 530.763 188.956 541.073 185.415 553.988 185.415 Z M 516.808 278.834 L 631.472 278.834 L 631.472 303.204 L 516.808 303.204 L 516.808 278.834 Z M 839.865 185.728 L 839.865 318.201 C 839.865 339.239 837.262 356.214 832.054 369.129 C 827.055 381.834 818.828 391.103 807.372 396.935 C 795.916 402.559 780.606 405.371 761.444 405.371 C 741.448 405.371 725.513 402.559 713.641 396.935 C 701.768 391.103 693.124 381.834 687.708 369.129 C 682.501 356.214 679.897 339.239 679.897 318.201 L 679.897 185.728 L 711.141 185.728 L 711.141 318.201 C 711.141 333.198 712.599 345.175 715.515 354.132 C 718.64 362.88 723.743 369.129 730.825 372.878 C 738.115 376.419 747.8 378.189 759.881 378.189 C 771.962 378.189 781.44 376.419 788.313 372.878 C 795.395 369.129 800.498 362.88 803.623 354.132 C 806.955 345.175 808.622 333.198 808.622 318.201 L 808.622 185.728 L 839.865 185.728 Z M 971.377 185.728 L 971.377 401.31 L 940.133 401.31 L 940.133 185.728 L 971.377 185.728 Z M 1040.11 185.728 L 1040.11 212.597 L 871.709 212.597 L 871.709 185.728 L 1040.11 185.728 Z M 1231.94 185.728 L 1231.94 318.201 C 1231.94 339.239 1229.33 356.214 1224.13 369.129 C 1219.13 381.834 1210.9 391.103 1199.44 396.935 C 1187.99 402.559 1172.68 405.371 1153.52 405.371 C 1133.52 405.371 1117.59 402.559 1105.71 396.935 C 1093.84 391.103 1085.2 381.834 1079.78 369.129 C 1074.57 356.214 1071.97 339.239 1071.97 318.201 L 1071.97 185.728 L 1103.21 185.728 L 1103.21 318.201 C 1103.21 333.198 1104.67 345.175 1107.59 354.132 C 1110.71 362.88 1115.82 369.129 1122.9 372.878 C 1130.19 376.419 1139.87 378.189 1151.95 378.189 C 1164.03 378.189 1173.51 376.419 1180.39 372.878 C 1187.47 369.129 1192.57 362.88 1195.69 354.132 C 1199.03 345.175 1200.69 333.198 1200.69 318.201 L 1200.69 185.728 L 1231.94 185.728 Z M 1358.76 182.916 C 1375.84 182.916 1389.59 184.79 1400 188.54 C 1410.63 192.081 1418.33 198.434 1423.12 207.598 C 1427.92 216.555 1430.31 229.157 1430.31 245.403 C 1430.31 256.859 1428.96 266.441 1426.25 274.148 C 1423.54 281.854 1419.27 287.895 1413.44 292.269 C 1407.82 296.643 1400.11 299.455 1390.32 300.705 L 1390.32 302.267 C 1393.86 303.1 1397.4 304.766 1400.94 307.266 C 1404.48 309.765 1407.82 313.202 1410.94 317.576 C 1414.06 321.742 1416.36 327.054 1417.81 333.511 L 1438.12 401.31 L 1405 401.31 L 1386.26 334.136 C 1383.76 326.22 1380.32 320.597 1375.95 317.264 C 1371.57 313.931 1365.84 312.265 1358.76 312.265 C 1345.64 312.265 1334.39 312.265 1325.02 312.265 C 1315.65 312.057 1307.73 311.848 1301.27 311.64 C 1295.03 311.432 1289.92 311.328 1285.96 311.328 L 1286.9 286.333 L 1358.14 286.333 C 1368.34 286.124 1376.36 284.979 1382.2 282.896 C 1388.03 280.605 1392.19 276.647 1394.69 271.023 C 1397.4 265.399 1398.75 257.484 1398.75 247.278 C 1398.75 237.072 1397.4 229.261 1394.69 223.845 C 1392.19 218.221 1388.03 214.368 1382.2 212.285 C 1376.36 209.994 1368.34 208.848 1358.14 208.848 C 1340.64 208.848 1325.54 208.952 1312.83 209.161 C 1300.13 209.369 1291.59 209.473 1287.21 209.473 L 1282.84 185.728 C 1290.76 184.895 1298.25 184.27 1305.34 183.853 C 1312.42 183.437 1320.12 183.228 1328.46 183.228 C 1337 183.02 1347.1 182.916 1358.76 182.916 Z M 1313.77 185.728 L 1313.77 401.31 L 1282.84 401.31 L 1282.84 185.728 L 1313.77 185.728 Z M 1518.12 185.415 C 1528.53 185.415 1539.16 185.415 1549.99 185.415 C 1560.82 185.415 1571.44 185.624 1581.86 186.04 C 1592.48 186.249 1602.58 186.665 1612.16 187.29 L 1610.91 211.348 L 1524.99 211.348 C 1518.75 211.348 1514.16 212.91 1511.25 216.034 C 1508.33 219.159 1506.87 224.158 1506.87 231.031 L 1506.87 356.006 C 1506.87 362.88 1508.33 367.983 1511.25 371.316 C 1514.16 374.44 1518.75 376.002 1524.99 376.002 L 1610.91 376.002 L 1612.16 399.747 C 1602.58 400.372 1592.48 400.789 1581.86 400.997 C 1571.44 401.205 1560.82 401.31 1549.99 401.31 C 1539.16 401.518 1528.53 401.622 1518.12 401.622 C 1505.21 401.622 1494.9 398.185 1487.19 391.312 C 1479.69 384.23 1475.84 374.857 1475.63 363.192 L 1475.63 223.845 C 1475.84 211.973 1479.69 202.599 1487.19 195.726 C 1494.9 188.852 1505.21 185.415 1518.12 185.415 Z M 1481.25 275.71 L 1598.73 275.71 L 1598.73 299.767 L 1481.25 299.767 L 1481.25 275.71 Z M 1725.73 183.228 C 1743.64 183.228 1757.8 184.895 1768.22 188.227 C 1778.84 191.352 1786.44 196.976 1791.03 205.099 C 1795.82 213.222 1798.21 224.678 1798.21 239.467 C 1798.21 254.881 1795.3 266.649 1789.46 274.772 C 1783.84 282.896 1774.57 287.582 1761.66 288.832 L 1761.66 290.082 C 1777.7 291.54 1788.94 297.164 1795.4 306.953 C 1801.86 316.743 1805.09 330.282 1805.09 347.57 C 1805.09 362.359 1802.69 373.815 1797.9 381.938 C 1793.32 390.062 1785.92 395.79 1775.72 399.123 C 1765.51 402.247 1752.08 403.809 1735.41 403.809 C 1722.71 403.809 1711.77 403.705 1702.61 403.497 C 1693.65 403.497 1685.32 403.288 1677.61 402.872 C 1669.91 402.455 1661.89 401.934 1653.55 401.31 L 1657.93 377.252 C 1662.51 377.46 1671.36 377.668 1684.49 377.877 C 1697.61 378.085 1712.92 378.189 1730.41 378.189 C 1741.25 378.189 1749.79 377.252 1756.03 375.377 C 1762.28 373.503 1766.76 369.962 1769.47 364.754 C 1772.18 359.547 1773.53 351.944 1773.53 341.946 C 1773.53 331.115 1772.07 322.888 1769.16 317.264 C 1766.45 311.432 1761.87 307.37 1755.41 305.079 C 1748.95 302.579 1740 301.225 1728.54 301.017 L 1657.62 301.017 L 1657.62 278.209 L 1728.23 278.209 C 1738.23 278.001 1746.14 276.96 1751.97 275.085 C 1757.8 273.21 1761.97 269.773 1764.47 264.774 C 1766.97 259.567 1768.22 252.381 1768.22 243.216 C 1768.22 233.843 1766.87 226.657 1764.16 221.658 C 1761.45 216.659 1756.87 213.326 1750.41 211.66 C 1743.95 209.785 1735.2 208.848 1724.17 208.848 C 1713.75 208.848 1704.38 208.848 1696.05 208.848 C 1687.71 208.848 1680.42 208.952 1674.18 209.161 C 1667.93 209.161 1662.51 209.369 1657.93 209.785 L 1653.55 185.728 C 1661.05 184.895 1668.14 184.374 1674.8 184.166 C 1681.67 183.749 1689.07 183.541 1696.98 183.541 C 1705.11 183.332 1714.69 183.228 1725.73 183.228 Z M 1684.17 185.728 L 1684.17 401.31 L 1653.55 401.31 L 1653.55 185.728 L 1684.17 185.728 Z" stroke-linecap="round" />
</g>
		<g transform="matrix(1 0 0 1 978.68 51)"  >
<path style="stroke: none; stroke-width: 1; stroke-dasharray: none; stroke-linecap: butt; stroke-dashoffset: 0; stroke-linejoin: miter; stroke-miterlimit: 4; fill: rgb(255,255,255); fill-rule: nonzero; opacity: 1;" vector-effect="non-scaling-stroke"  transform=" translate(-2125.91, -293.52)" d="M 2057.03 185.728 L 2057.03 401.31 L 2025.79 401.31 L 2025.79 185.728 L 2057.03 185.728 Z M 2125.77 185.728 L 2125.77 212.597 L 1957.36 212.597 L 1957.36 185.728 L 2125.77 185.728 Z M 2221.05 181.979 C 2231.46 182.187 2242.19 182.708 2253.23 183.541 C 2264.48 184.374 2275.62 186.04 2286.66 188.54 L 2284.47 210.723 C 2275.52 210.306 2265.42 209.994 2254.17 209.785 C 2243.13 209.577 2232.4 209.473 2221.99 209.473 C 2214.7 209.473 2208.45 209.681 2203.24 210.098 C 2198.03 210.514 2193.76 211.66 2190.43 213.535 C 2187.1 215.409 2184.6 218.43 2182.93 222.595 C 2181.47 226.761 2180.74 232.489 2180.74 239.779 C 2180.74 250.819 2182.83 258.63 2186.99 263.212 C 2191.16 267.586 2197.93 270.919 2207.3 273.21 L 2250.73 284.77 C 2267.39 288.936 2278.85 296.018 2285.1 306.016 C 2291.35 315.806 2294.47 329.032 2294.47 345.696 C 2294.47 358.193 2293.01 368.295 2290.1 376.002 C 2287.39 383.709 2283.02 389.645 2276.98 393.811 C 2271.14 397.977 2263.54 400.893 2254.17 402.559 C 2244.79 404.226 2233.65 405.059 2220.74 405.059 C 2213.65 405.059 2204.28 404.746 2192.62 404.122 C 2180.95 403.497 2167.52 401.726 2152.31 398.81 L 2154.5 376.002 C 2166.79 376.419 2176.79 376.835 2184.49 377.252 C 2192.41 377.46 2199.18 377.564 2204.8 377.564 C 2210.43 377.564 2216.05 377.564 2221.67 377.564 C 2232.09 377.564 2240.32 376.835 2246.36 375.377 C 2252.4 373.711 2256.67 370.587 2259.17 366.004 C 2261.67 361.213 2262.92 354.34 2262.92 345.383 C 2262.92 337.676 2261.98 331.636 2260.1 327.262 C 2258.44 322.888 2255.63 319.659 2251.67 317.576 C 2247.92 315.285 2243.02 313.411 2236.98 311.952 L 2192.3 299.767 C 2176.68 295.393 2165.64 288.311 2159.19 278.522 C 2152.73 268.732 2149.5 255.714 2149.5 239.467 C 2149.5 226.97 2150.85 216.867 2153.56 209.161 C 2156.48 201.454 2160.85 195.726 2166.69 191.977 C 2172.52 188.019 2179.91 185.415 2188.87 184.166 C 2197.82 182.708 2208.55 181.979 2221.05 181.979 Z" stroke-linecap="round" />
</g>
</g>
</g>
</svg>